<svg width="220" height="85" viewBox="0 0 220 85" fill="none" xmlns="http://www.w3.org/2000/svg">
<path d="M1.32983 1.3786C22.452 35.3022 47.9021 68.1435 87.3059 80.7917C98.2284 84.2977 117.547 86.8114 126.848 77.5102C134.932 69.427 136.29 53.3404 135.627 42.7259C134.978 32.3509 131.228 20.8418 123.157 14.0125C119.495 10.9139 114.506 9.35571 112.82 14.7508C108.349 29.058 125.701 43.3934 138.99 40.9211C158.783 37.2388 175.981 20.5756 196.253 20.5756C198.576 20.5756 211.02 18.9109 211.02 23.529C211.02 28.2935 203.261 31.3819 200.683 34.6041C196.742 39.5298 210.083 26.0511 215.532 22.8727C219.83 20.3652 220.46 21.2192 214.629 19.0989C208.649 16.924 199.854 12.1808 197.73 5.80865" stroke="#222222" stroke-width="2" stroke-linecap="round"/>
</svg>
