<svg width="36" height="37" viewBox="0 0 36 37" fill="none" xmlns="http://www.w3.org/2000/svg">
<path d="M16.3019 9C16.3019 9 15.433 12.5784 14.5094 14.7358C13.9801 15.9723 13.0772 17.5729 12.5109 18.5402C12.303 18.8954 12.5845 19.3432 12.9946 19.3075C16.1689 19.0313 17.4306 19 21 19" stroke="white" stroke-width="2" stroke-linecap="round"/>
<path d="M21.2455 12.584C21.2455 12.584 19.7483 17.5664 19.0945 20.8293C18.5383 23.6054 18.019 27.9991 18.019 27.9991" stroke="white" stroke-width="2" stroke-linecap="round"/>
<path d="M11.974 35.1138C18.584 35.1138 25.7805 35.5737 31.7992 26.6944C33.3877 24.3511 35.8754 20.145 34.6904 14.287C33.9424 10.589 32.2947 8.5242 30.9556 6.97553C28.5887 4.23812 26.0307 2.74857 23.4948 1.92886C18.302 0.250351 12.3125 0.521811 7.33406 5.47383C5.47904 7.319 0.164099 12.3006 1.1123 20.5646C1.90796 27.499 4.74726 30.8403 7.05284 32.455C11.4508 35.5351 16.169 35.6495 20.6739 36" stroke="white" stroke-width="2" stroke-linecap="round"/>
</svg>
