<svg width="36" height="37" viewBox="0 0 36 37" fill="none" xmlns="http://www.w3.org/2000/svg">
<path d="M14 9.49976C14 9.49976 16.12 9.95663 17.5 9.99976C18.5176 10.0316 19.8553 9.86097 20.807 9.71051C21.2478 9.64085 21.575 10.1372 21.3275 10.5085L17.6533 16.0198C17.4086 16.3869 17.72 16.8445 18.15 16.7455C19.5396 16.4254 20.8286 16.2426 22 17.9998C23 19.4998 23 21.4998 22 22.9998C20.5382 25.1924 15.3 28.1998 12.5 20.9998" stroke="#FAFCFF" stroke-width="2" stroke-linecap="round"/>
<path d="M11.974 35.1135C18.584 35.1135 25.7805 35.5735 31.7992 26.6942C33.3877 24.3508 35.8754 20.1447 34.6904 14.2868C33.9424 10.5887 32.2947 8.52396 30.9556 6.97528C28.5887 4.23787 26.0307 2.74832 23.4948 1.92862C18.302 0.250107 12.3125 0.521567 7.33406 5.47359C5.47904 7.31876 0.164099 12.3004 1.1123 20.5643C1.90796 27.4987 4.74726 30.8401 7.05284 32.4548C11.4508 35.5349 16.169 35.6492 20.6739 35.9998" stroke="white" stroke-width="2" stroke-linecap="round"/>
</svg>
