<svg width="405" height="179" viewBox="0 0 405 179" fill="none" xmlns="http://www.w3.org/2000/svg">
<path d="M250.3 95.9781C245.734 102.403 238.534 117.113 235.505 123.665C233.307 132.965 238.816 134.726 241.845 134.444L259.388 130.217C259.388 136.769 275.451 183.69 324.485 178.617C363.712 174.559 379.155 144.66 381.973 130.217C388.229 132.923 396.134 134.163 399.304 134.444C403.742 135.079 404.88 129.372 404.799 127.681C404.588 123.243 402.812 117.071 391.484 99.1484C380.155 81.2256 370.545 71.0384 365.487 64.9091C360.429 58.7799 359.781 36.165 354.708 23.9065C349.636 11.648 337.589 -0.610478 322.16 0.0235828C309.817 0.530831 301.94 4.74381 299.545 6.7869C282.425 21.1589 281.791 41.0262 281.791 43.3511C281.791 47.2674 281.791 56.6663 275.662 64.9091C274.138 66.9585 256.006 87.9467 250.3 95.9781Z" fill="#275EC7" fill-opacity="0.15"/>
<path d="M363.585 122.397C358.344 153.509 331.953 160.018 319.412 159.384C308.591 160.72 296.727 153.459 292.148 149.662C275.07 136.643 275.873 114.225 278.41 104.644C282.129 81.6484 300.813 67.7272 309.69 63.6411C316.453 60.0481 328.923 62.3729 331.671 63.6411C344.493 70.2635 368.827 91.2861 363.585 122.397Z" fill="#ECF2FD"/>
<path d="M343.295 49.6916C323.343 39.7157 304.688 45.2532 297.854 49.2689C294.134 51.8051 295.741 54.2709 297.009 55.1868C303.349 59.5548 316.496 68.5444 318.355 69.5589C320.215 70.5734 321.808 69.9816 322.371 69.5589C328.007 66.459 340.083 59.4139 343.295 56.0322C346.508 52.6506 344.634 50.3961 343.295 49.6916Z" fill="#C3D3F0"/>
<path d="M3.28125 136V85.0909H17.1023V124.864H37.6847V136H3.28125ZM43.4703 136V97.8182H57.1919V136H43.4703ZM50.3311 93.8409C48.4751 93.8409 46.8842 93.2277 45.5584 92.0014C44.2327 90.7751 43.5698 89.3002 43.5698 87.5767C43.5698 85.8532 44.2327 84.3783 45.5584 83.152C46.8842 81.9257 48.4751 81.3125 50.3311 81.3125C52.2038 81.3125 53.7947 81.9257 55.1039 83.152C56.4296 84.3783 57.0925 85.8532 57.0925 87.5767C57.0925 89.3002 56.4296 90.7751 55.1039 92.0014C53.7947 93.2277 52.2038 93.8409 50.3311 93.8409ZM77.9048 114.523V136H64.1832V97.8182H77.2088V105.077H77.6065C78.4351 102.657 79.8935 100.76 81.9815 99.3842C84.0862 98.0088 86.5388 97.321 89.3395 97.321C92.0407 97.321 94.3857 97.9425 96.3743 99.1854C98.3795 100.412 99.929 102.102 101.023 104.256C102.133 106.411 102.68 108.872 102.663 111.639V136H88.9418V114.523C88.9583 112.634 88.4777 111.15 87.5 110.073C86.5388 108.996 85.1965 108.457 83.473 108.457C82.3461 108.457 81.3601 108.706 80.5149 109.203C79.6863 109.684 79.0483 110.38 78.6009 111.291C78.1534 112.186 77.9214 113.263 77.9048 114.523ZM134.196 119.295V97.8182H147.917V136H134.892V128.741H134.494C133.665 131.178 132.215 133.083 130.144 134.459C128.072 135.818 125.611 136.497 122.761 136.497C120.093 136.497 117.756 135.884 115.751 134.658C113.762 133.431 112.213 131.741 111.103 129.587C110.009 127.432 109.454 124.963 109.437 122.179V97.8182H123.159V119.295C123.175 121.185 123.656 122.668 124.6 123.745C125.562 124.822 126.904 125.361 128.627 125.361C129.771 125.361 130.757 125.121 131.586 124.64C132.431 124.143 133.077 123.447 133.525 122.552C133.989 121.64 134.212 120.555 134.196 119.295ZM166.729 97.8182L172.297 109.651L178.163 97.8182H191.785L181.544 116.909L192.282 136H178.76L172.297 123.869L166.032 136H152.311L163.149 116.909L153.007 97.8182H166.729Z" fill="#275EC7" fill-opacity="0.15"/>
</svg>
