<svg width="48" height="48" viewBox="0 0 48 48" fill="none" xmlns="http://www.w3.org/2000/svg">
<g clip-path="url(#clip0_1_430)">
<path d="M23 48H25C35.88 48 41.3 48 44.66 44.64C48 41.28 48 35.84 48 25V22.96C48 12.16 48 6.72 44.66 3.36C41.3 0 35.86 0 25 0H23C12.12 0 6.7 0 3.34 3.36C0 6.72 0 12.16 0 23V25.04C0 35.84 0 41.28 3.36 44.64C6.72 48 12.16 48 23 48Z" fill="#0077FF"/>
<path d="M25.5396 34.5816C14.5996 34.5816 8.35961 27.0816 8.09961 14.6016H13.5796C13.7596 23.7616 17.7996 27.6416 20.9996 28.4416V14.6016H26.1596V22.5016C29.3196 22.1616 32.6396 18.5616 33.7596 14.6016H38.9196C38.4976 16.6553 37.6563 18.5999 36.4484 20.3137C35.2405 22.0275 33.6919 23.4736 31.8996 24.5616C33.9003 25.5557 35.6673 26.9628 37.0843 28.69C38.5012 30.4172 39.5357 32.4252 40.1196 34.5816H34.4396C33.9155 32.7086 32.8502 31.032 31.3773 29.7619C29.9043 28.4917 28.0893 27.6846 26.1596 27.4416V34.5816H25.5396Z" fill="white"/>
</g>
<defs>
<clipPath id="clip0_1_430">
<rect width="48" height="48" fill="white"/>
</clipPath>
</defs>
</svg>
