<svg width="32" height="32" viewBox="0 0 32 32" fill="none" xmlns="http://www.w3.org/2000/svg">
<g clip-path="url(#clip0_1_599)">
<path d="M15.3333 32H16.6667C23.92 32 27.5333 32 29.7733 29.76C32 27.52 32 23.8933 32 16.6667V15.3067C32 8.10667 32 4.48 29.7733 2.24C27.5333 0 23.9067 0 16.6667 0H15.3333C8.08 0 4.46667 0 2.22667 2.24C0 4.48 0 8.10667 0 15.3333V16.6933C0 23.8933 0 27.52 2.24 29.76C4.48 32 8.10667 32 15.3333 32Z" fill="#27C791"/>
<path d="M10.62 14.79C12.06 17.62 14.38 19.93 17.21 21.38L19.41 19.18C19.68 18.91 20.08 18.82 20.43 18.94C21.55 19.31 22.76 19.51 24 19.51C24.55 19.51 25 19.96 25 20.51V24C25 24.55 24.55 25 24 25C14.61 25 7 17.39 7 8C7 7.45 7.45 7 8 7H11.5C12.05 7 12.5 7.45 12.5 8C12.5 9.25 12.7 10.45 13.07 11.57C13.18 11.92 13.1 12.31 12.82 12.59L10.62 14.79Z" fill="white"/>
</g>
<defs>
<clipPath id="clip0_1_599">
<rect width="32" height="32" fill="white"/>
</clipPath>
</defs>
</svg>
