<svg width="190" height="45" viewBox="0 0 190 45" fill="none" xmlns="http://www.w3.org/2000/svg">
<path d="M1.90918 1.82263C6.40239 15.4855 10.755 21.1292 25.2889 20.4812C38.4138 19.896 52.6908 13.6424 64.8979 9.08545C80.0114 3.4435 109.679 -0.965997 118.461 16.9937C125.28 30.9389 115.059 47.6146 98.9744 43.0761C92.7735 41.3265 89.5691 33.0214 92.3158 27.2597C95.2824 21.0365 104.151 18.0365 110.284 16.6007C126.756 12.7449 137.73 28.2248 152.635 30.9436C166.56 33.4837 176.901 27.2256 187.446 18.762C188.349 18.0371 187.887 22.8605 187.887 24.0669C187.887 28.4894 188.768 26.5266 188.768 23.1828C188.768 21.0322 189.897 16.4598 187.005 17.6813C184.919 18.5626 180.534 18.762 178.192 18.762" stroke="#1C1C1C" stroke-width="2" stroke-linecap="round"/>
</svg>
