<svg width="36" height="37" viewBox="0 0 36 37" fill="none" xmlns="http://www.w3.org/2000/svg">
<path d="M14.5775 14.5C14.7442 13.3333 16.5775 11 19.0775 11C21.0775 11 22.5775 12.5 21.5775 16C21.102 17.4263 12.9416 20.6608 13.0003 23.9842C13.0053 24.2688 13.3023 24.425 13.5747 24.3424C15.1865 23.8537 17.8141 23.2455 18.5775 23.5C20.0775 24 22.0775 25.5 23.0775 24.5" stroke="white" stroke-width="2" stroke-linecap="round"/>
<path d="M11.974 35.1138C18.584 35.1138 25.7805 35.5737 31.7992 26.6944C33.3877 24.3511 35.8754 20.145 34.6904 14.287C33.9424 10.589 32.2947 8.5242 30.9556 6.97553C28.5887 4.23812 26.0307 2.74857 23.4948 1.92886C18.302 0.250351 12.3125 0.521811 7.33406 5.47383C5.47904 7.319 0.164099 12.3006 1.1123 20.5646C1.90796 27.499 4.74726 30.8403 7.05284 32.455C11.4508 35.5351 16.169 35.6495 20.6739 36" stroke="white" stroke-width="2" stroke-linecap="round"/>
</svg>
