<svg width="163" height="38" viewBox="0 0 163 38" fill="none" xmlns="http://www.w3.org/2000/svg">
<path d="M1.81592 37.0682C5.6653 25.3631 9.39425 20.5281 21.8456 21.0833C33.0899 21.5846 45.3211 26.9421 55.779 30.8461C68.7269 35.6796 94.1432 39.4573 101.667 24.071C107.509 12.124 98.7526 -2.16221 84.9727 1.7259C79.6603 3.22485 76.9151 10.3399 79.2682 15.2761C81.8098 20.6075 89.4075 23.1777 94.662 24.4077C108.774 27.711 118.175 14.4492 130.944 12.12C142.874 9.94386 151.733 15.3052 160.767 22.5561C161.541 23.1772 161.145 19.0448 161.145 18.0113C161.145 14.2225 161.9 15.9041 161.9 18.7688C161.9 20.6112 162.867 24.5284 160.39 23.4819C158.602 22.7269 154.845 22.5561 152.84 22.5561" stroke="#1C1C1C" stroke-width="1.71342" stroke-linecap="round"/>
</svg>
