<svg width="36" height="37" viewBox="0 0 36 37" fill="none" xmlns="http://www.w3.org/2000/svg">
<path d="M14 13.9488C14 13.9488 16.0698 13.0922 17.2308 12.2491C17.7871 11.8452 18.3648 11.2772 18.8959 10.6876C19.2816 10.2596 20.1622 10.7107 19.9933 11.2616C18.4625 16.2548 15.7652 25.201 16.1538 24.9966" stroke="white" stroke-width="2" stroke-linecap="round"/>
<path d="M11.974 35.1138C18.584 35.1138 25.7805 35.5737 31.7992 26.6944C33.3877 24.3511 35.8754 20.145 34.6904 14.287C33.9424 10.589 32.2947 8.5242 30.9556 6.97553C28.5887 4.23812 26.0307 2.74857 23.4948 1.92886C18.302 0.250351 12.3125 0.521811 7.33406 5.47383C5.47904 7.319 0.164099 12.3006 1.1123 20.5646C1.90796 27.499 4.74726 30.8403 7.05284 32.455C11.4508 35.5351 16.169 35.6495 20.6739 36" stroke="white" stroke-width="2" stroke-linecap="round"/>
</svg>
