<svg width="185" height="39" viewBox="0 0 185 39" fill="none" xmlns="http://www.w3.org/2000/svg">
<g clip-path="url(#clip0_1_418)">
<path fill-rule="evenodd" clip-rule="evenodd" d="M12.5094 27.0515C10.5963 24.77 7.45937 23.9284 4.66064 24.9457C1.86119 25.9628 -0.00116805 28.6217 5.49642e-07 31.5984C0.000974383 34.5741 1.86664 37.2318 4.66635 38.2467C7.46625 39.2618 10.5984 38.4221 12.5094 36.1393C15.774 32.2391 21.2398 30.9797 25.8881 33.0492C25.7406 32.0855 25.7406 31.1044 25.8881 30.1405C21.2414 32.214 15.7768 30.9488 12.5094 27.0515ZM173.953 19.6529L184.192 7.21776C185.076 6.14324 184.921 4.55681 183.846 3.67281C182.771 2.78978 181.184 2.94372 180.299 4.01779L170.689 15.6897L161.079 4.01779C160.195 2.94372 158.606 2.78978 157.532 3.67281C156.457 4.55681 156.302 6.14324 157.187 7.21776L167.426 19.6529L157.187 32.0884C156.303 33.1619 156.457 34.7489 157.532 35.6322C158.001 36.0177 158.568 36.2063 159.132 36.2063C159.859 36.2063 160.581 35.8929 161.079 35.2879L170.689 23.6164L180.299 35.2879C180.797 35.8929 181.519 36.2063 182.246 36.2063C182.81 36.2063 183.377 36.0177 183.846 35.6322C184.921 34.7489 185.075 33.1619 184.191 32.0884L173.953 19.6529ZM87.0788 27.8648C85.0013 25.791 83.8322 22.9628 83.8308 20.0288V4.24484H81.4729H79.1152V20.0288C79.1182 24.2177 80.7859 28.2338 83.7513 31.1937C86.7178 34.1539 92.1588 35.8149 96.3505 35.812L97.1564 35.8128V33.456V31.1001H96.3505C93.414 31.1023 89.1569 29.9381 87.0788 27.8648ZM138.355 9.24395C142.494 8.25129 146.874 9.76675 149.561 13.0669L151.271 11.3574L152.908 9.72166C148.597 4.73131 141.634 2.94515 135.45 5.24464C129.267 7.54361 125.166 13.4433 125.169 20.0366C125.173 26.629 129.278 32.5251 135.464 34.8184C141.65 37.1117 148.602 35.3306 152.908 30.335L151.271 28.7005L149.561 26.9909C146.893 30.3055 142.559 31.7974 138.414 30.828C134.269 29.8573 131.036 26.5384 130.118 22.3847H149.576V20.0288V17.673H130.118C131.013 13.5145 134.215 10.2367 138.355 9.24395ZM97.1536 8.95722H105.884C106.228 8.95651 106.559 9.09377 106.802 9.33665C107.046 9.57973 107.183 9.91128 107.184 10.2563V35.812H109.542H111.899V10.2563C111.899 9.91128 112.036 9.58186 112.279 9.33808C112.523 9.09449 112.855 8.95722 113.2 8.95722H121.93V4.24484H97.1536V8.95722ZM58.9305 9.24395C63.0696 8.25129 67.4506 9.76675 70.1363 13.0669L71.8472 11.3574L73.4842 9.72166C69.173 4.73131 62.2102 2.94515 56.0263 5.24464C49.8424 7.54361 45.7418 13.4433 45.7448 20.0366C45.7479 26.629 49.8546 32.5251 56.04 34.8184C62.2264 37.1117 69.1775 35.3306 73.4842 30.335L71.8472 28.7005L70.1363 26.9909C67.469 30.3055 63.1347 31.7974 58.99 30.828C54.8454 29.8573 51.6115 26.5384 50.6945 22.3847H69.7915V20.0288V17.673H50.6945C51.5884 13.5145 54.7911 10.2367 58.9305 9.24395ZM22.468 14.0447C25.4018 13.5307 27.6995 11.2367 28.217 8.305C28.7343 5.37477 27.3616 2.4337 24.7814 0.946982C22.2017 -0.540646 18.9666 -0.255342 16.687 1.66031C14.4074 3.57544 13.568 6.70541 14.5912 9.50052C16.3396 14.2759 14.6979 19.6353 10.58 22.6228C11.489 22.9775 12.339 23.4674 13.1012 24.0772C13.6277 19.0199 17.4563 14.9238 22.468 14.0447ZM36.6383 24.6219C31.6253 23.7471 27.8015 19.6468 27.271 14.5892C26.5093 15.199 25.6588 15.6897 24.7502 16.0436C28.8702 19.0276 30.5058 24.3891 28.7615 29.1659C27.7408 31.9617 28.5799 35.0969 30.861 37.0106C33.1429 38.9236 36.3778 39.2064 38.9571 37.7166C41.5354 36.2277 42.9067 33.2855 42.3859 30.3548C41.8655 27.4253 39.5723 25.134 36.6383 24.6219Z" fill="#275EC7"/>
</g>
<defs>
<clipPath id="clip0_1_418">
<rect width="185" height="39" fill="white"/>
</clipPath>
</defs>
</svg>
