<svg width="464" height="428" viewBox="0 0 464 428" fill="none" xmlns="http://www.w3.org/2000/svg">
<g opacity="0.05" filter="url(#filter0_i_1_269)">
<ellipse cx="195.478" cy="190.933" rx="195.478" ry="190.933" transform="matrix(0.0767957 0.997047 0.997047 -0.0767957 53.0171 37.326)" fill="url(#paint0_linear_1_269)"/>
</g>
<path d="M138.356 63.3509C131.348 52.712 105.388 19.8612 88.3247 37.7882C83.4919 42.8658 81.8665 56.5964 90.7514 59.1768C102.599 62.6177 103.149 44.5641 98.5568 38.303C86.4585 21.8089 59.3071 25.16 44.1836 34.664C31.4832 42.6452 23.5665 56.7187 18.3834 70.353C15.9521 76.7487 16.6876 83.2376 14.6943 89.5297C11.6106 99.2637 10.778 84.8837 8.44077 79.8328C3.66519 69.5122 11.9392 86.0301 13.565 89.598C16.2474 95.4848 28.7503 85.2047 34.0816 82.1235" stroke="#1C1C1C" stroke-width="2" stroke-linecap="round"/>
<circle cx="10" cy="10" r="10" transform="matrix(-0.173648 -0.984808 -0.984808 0.173648 149.779 73.6952)" fill="#66D3C8"/>
<defs>
<filter id="filter0_i_1_269" x="37.4282" y="22.1033" width="411.94" height="394.921" filterUnits="userSpaceOnUse" color-interpolation-filters="sRGB">
<feFlood flood-opacity="0" result="BackgroundImageFix"/>
<feBlend mode="normal" in="SourceGraphic" in2="BackgroundImageFix" result="shape"/>
<feColorMatrix in="SourceAlpha" type="matrix" values="0 0 0 0 0 0 0 0 0 0 0 0 0 0 0 0 0 0 127 0" result="hardAlpha"/>
<feOffset dx="-30" dy="4"/>
<feGaussianBlur stdDeviation="25"/>
<feComposite in2="hardAlpha" operator="arithmetic" k2="-1" k3="1"/>
<feColorMatrix type="matrix" values="0 0 0 0 1 0 0 0 0 0.278431 0 0 0 0 0.407843 0 0 0 1 0"/>
<feBlend mode="normal" in2="shape" result="effect1_innerShadow_1_269"/>
</filter>
<linearGradient id="paint0_linear_1_269" x1="195.478" y1="0" x2="195.478" y2="381.866" gradientUnits="userSpaceOnUse">
<stop stop-color="#FA5ECE"/>
<stop offset="0.0001" stop-color="#FF4768"/>
<stop offset="0.265625" stop-color="#F9DFE3"/>
<stop offset="1" stop-color="#FF234B"/>
</linearGradient>
</defs>
</svg>
